<?xml version="1.0" standalone="no"?>
<!DOCTYPE svg PUBLIC "-//W3C//DTD SVG 20010904//EN"
 "http://www.w3.org/TR/2001/REC-SVG-20010904/DTD/svg10.dtd">
<svg version="1.0" xmlns="http://www.w3.org/2000/svg"
 width="590.000000pt" height="590.000000pt" viewBox="0 0 590.000000 590.000000"
 preserveAspectRatio="xMidYMid meet">
<metadata>
Created by potrace 1.14, written by Peter Selinger 2001-2017
</metadata>
<g transform="translate(0.000000,590.000000) scale(0.100000,-0.100000)"
fill="#000000" stroke="none">
<path d="M476 4253 c-1 -1 -46 -4 -101 -7 -93 -5 -288 -29 -341 -42 -13 -3
-26 -14 -29 -25 -6 -17 1 -173 9 -209 5 -26 17 -104 20 -134 4 -29 19 -45 46
-47 8 0 44 -2 80 -5 121 -7 264 -34 278 -51 6 -9 13 -44 13 -77 4 -160 11
-258 26 -356 2 -14 6 -144 8 -290 9 -515 15 -726 21 -776 9 -73 -15 -91 -111
-86 -82 5 -250 -1 -332 -12 -52 -8 -73 -27 -54 -50 5 -6 6 -19 2 -28 -3 -9 -5
-96 -3 -192 3 -153 5 -175 20 -181 43 -17 331 -22 807 -14 116 2 215 0 222 -4
6 -4 16 0 23 8 16 19 9 109 -18 235 -54 247 -65 398 -50 660 5 99 11 108 78
115 30 3 73 8 95 11 22 3 65 7 95 9 91 7 623 8 650 1 69 -16 178 -21 290 -12
133 10 238 16 335 18 138 3 129 22 140 -292 8 -226 8 -226 1 -254 -8 -31 -17
-33 -151 -41 -115 -7 -198 -13 -228 -18 -38 -7 -52 -46 -52 -152 1 -255 4
-293 23 -299 27 -9 187 -10 307 -2 84 6 457 9 670 5 11 0 81 0 155 0 74 0 148
-1 163 -3 18 -3 36 3 54 18 l25 22 0 209 c1 242 3 235 -89 224 -104 -12 -330
3 -350 24 -12 12 -20 255 -15 453 3 99 3 99 194 101 203 2 386 10 399 19 38
23 757 23 939 -1 25 -3 64 -8 87 -11 24 -3 46 -10 49 -16 7 -11 9 -37 19 -228
2 -58 7 -121 10 -140 9 -60 15 -132 20 -230 8 -178 17 -255 37 -335 24 -94 28
-100 65 -103 15 -1 61 -6 101 -10 74 -8 561 -7 617 1 17 3 50 8 75 11 79 12
81 20 76 240 -3 105 -7 200 -10 211 -2 11 -5 25 -5 31 -2 28 -64 39 -281 49
-142 7 -150 8 -161 27 -17 31 -27 512 -19 998 0 52 -1 170 -3 261 -3 121 0
171 9 183 15 21 128 35 199 24 33 -5 73 -2 118 8 75 17 88 32 82 95 -2 19 -6
81 -10 139 -3 58 -12 130 -20 160 -8 30 -16 68 -19 84 -7 42 -23 53 -86 61
-98 14 -465 21 -510 11 -14 -3 -68 -13 -120 -22 -52 -8 -113 -20 -134 -25
l-39 -11 7 -91 c3 -51 8 -103 10 -117 3 -14 7 -59 10 -100 3 -41 8 -87 11
-102 3 -14 8 -79 11 -145 7 -158 7 -164 5 -268 0 -49 -1 -101 -1 -115 0 -13
-4 -28 -9 -33 -6 -6 -234 -10 -538 -11 -290 -1 -533 -5 -538 -8 -6 -4 -69 -9
-140 -13 -72 -3 -155 -8 -185 -10 -30 -3 -82 0 -115 5 -33 5 -100 11 -148 14
-49 2 -92 7 -95 11 -9 9 -5 521 3 535 16 26 66 32 215 30 284 -6 310 -4 328
14 14 14 17 45 18 222 1 158 -1 208 -12 218 -20 20 -927 13 -1119 -9 -59 -7
-291 -17 -357 -16 -86 2 -89 -5 -83 -157 10 -245 18 -280 68 -293 16 -4 43 -6
60 -4 176 24 333 27 350 7 15 -18 33 -201 31 -311 -1 -47 -2 -113 -3 -147 -1
-75 -14 -93 -71 -100 -41 -6 -549 -11 -1045 -12 -104 0 -228 -1 -275 -1 -47 0
-130 -1 -184 -2 -124 -3 -126 0 -121 115 8 162 5 317 -9 471 -9 94 -15 183
-21 275 -12 184 -18 205 -59 216 -20 5 -404 2 -410 -3z"/>
</g>
</svg>
