<?xml version="1.0" standalone="no"?>
<!DOCTYPE svg PUBLIC "-//W3C//DTD SVG 20010904//EN"
 "http://www.w3.org/TR/2001/REC-SVG-20010904/DTD/svg10.dtd">
<svg version="1.0" xmlns="http://www.w3.org/2000/svg"
 width="690.000000pt" height="690.000000pt" viewBox="0 0 690.000000 690.000000"
 preserveAspectRatio="xMidYMid meet">
<metadata>
Created by potrace 1.14, written by Peter Selinger 2001-2017
</metadata>
<g transform="translate(0.000000,690.000000) scale(0.100000,-0.100000)"
fill="#000000" stroke="none">
<path d="M987 4753 c-1 0 -56 -4 -122 -7 -66 -4 -127 -9 -135 -11 -8 -2 -37
-6 -65 -10 -90 -10 -120 -17 -143 -32 -23 -14 -23 -18 -18 -106 3 -51 7 -103
10 -117 2 -14 9 -56 14 -94 6 -38 15 -73 19 -77 5 -5 49 -11 98 -14 50 -3 101
-7 115 -10 14 -3 43 -7 65 -11 90 -12 101 -15 113 -31 6 -9 12 -37 13 -62 3
-150 14 -314 25 -362 3 -13 7 -148 10 -299 7 -477 13 -733 19 -780 9 -67 -7
-82 -81 -81 -256 3 -400 -7 -414 -29 -3 -5 -5 -31 -3 -57 1 -26 2 -121 2 -209
1 -144 3 -163 19 -169 39 -17 328 -22 804 -14 119 2 220 0 224 -4 4 -4 13 -2
21 4 20 17 16 88 -11 213 -14 61 -27 136 -30 166 -5 54 -17 117 -35 192 -5 20
-7 39 -5 41 2 1 6 66 10 143 10 233 13 253 38 255 56 2 137 12 161 18 29 7
285 15 495 15 116 0 298 -11 311 -19 11 -7 184 -9 195 -2 10 6 321 22 398 20
82 -2 83 -3 91 -293 3 -85 5 -166 6 -180 4 -61 -2 -90 -19 -99 -9 -5 -69 -12
-132 -15 -119 -7 -211 -14 -232 -19 -7 -1 -22 -13 -33 -27 -21 -26 -23 -57
-17 -322 2 -87 4 -97 22 -103 25 -8 242 -8 290 0 39 6 959 7 1003 1 19 -3 36
3 54 18 27 24 28 30 24 281 0 44 1 95 3 112 7 64 -8 70 -157 58 -68 -5 -270
14 -284 28 -12 12 -20 240 -15 448 3 104 2 104 189 105 181 2 376 11 413 20
94 22 765 22 928 0 23 -3 61 -8 84 -11 23 -3 46 -9 51 -14 10 -10 15 -69 21
-243 2 -59 7 -115 10 -125 7 -23 17 -134 21 -243 8 -175 21 -283 36 -312 5 -9
9 -29 9 -45 0 -44 23 -68 66 -71 21 -2 54 -6 74 -11 38 -8 612 -6 647 2 11 3
42 9 66 12 76 12 77 14 72 230 -4 164 -6 203 -14 247 -4 24 -57 40 -143 44
-51 3 -120 7 -153 9 -33 2 -77 4 -97 4 -26 1 -40 7 -47 20 -14 25 -25 336 -24
651 3 442 3 482 0 625 -2 77 -1 148 1 157 7 28 62 39 188 38 126 -1 191 9 210
34 11 16 11 32 -1 196 -8 118 -10 135 -23 185 -6 22 -13 53 -16 69 -8 43 -24
54 -86 61 -213 25 -472 21 -620 -10 -8 -2 -40 -7 -70 -11 -123 -18 -122 -16
-103 -159 6 -49 14 -126 17 -170 3 -44 8 -91 12 -105 3 -14 7 -79 10 -145 6
-159 7 -175 5 -280 -1 -49 -1 -99 -1 -109 1 -10 -3 -23 -7 -27 -8 -8 -537 -22
-628 -17 -94 5 -404 2 -445 -4 -109 -17 -395 -26 -470 -14 -25 3 -80 8 -123
10 -43 1 -83 8 -90 15 -9 9 -11 79 -10 267 1 140 5 259 9 265 18 30 139 38
392 25 85 -4 146 6 159 27 11 17 12 408 2 428 -8 15 -50 16 -461 13 -424 -3
-501 -5 -668 -19 -103 -8 -290 -17 -352 -16 -89 2 -92 -5 -84 -168 10 -178 15
-219 31 -252 18 -34 35 -40 93 -34 26 3 76 9 112 13 96 11 229 7 243 -7 18
-18 34 -210 30 -364 -4 -140 -12 -186 -35 -188 -7 0 -22 -3 -33 -5 -16 -4
-543 -9 -1539 -16 -90 -1 -95 6 -90 120 7 175 3 366 -9 457 -3 22 -9 83 -12
135 -3 52 -9 129 -12 170 -3 41 -7 91 -8 110 -2 46 -20 78 -48 85 -19 5 -395
3 -400 -2z"/>
</g>
</svg>
