<svg width="47" height="21" viewBox="0 0 47 21" fill="none" xmlns="http://www.w3.org/2000/svg">
<path d="M46.994 19.6911C46.9798 19.196 46.9554 18.7015 46.9747 18.206C46.9747 18.196 46.9747 18.186 46.9757 18.1761C46.9783 18.1761 46.9803 18.1761 46.9828 18.1761C46.9839 18.1107 46.9828 18.0458 46.9813 17.9804C46.9813 17.9625 46.9828 17.9445 46.9828 17.9265C46.9818 17.9265 46.9803 17.9265 46.9793 17.9265C46.9747 17.8083 46.9645 17.69 46.9442 17.5722C46.9111 17.3801 46.8887 17.1865 46.8526 16.9949C46.8333 16.8921 46.7611 16.8157 46.6675 16.7683C46.5373 16.7019 46.401 16.6565 46.2505 16.655C46.1131 16.6535 45.9758 16.6471 45.8395 16.6306C45.6244 16.6051 45.4113 16.5717 45.1926 16.5882C45.0171 16.6011 44.8391 16.6161 44.6641 16.5717C44.626 16.5622 44.5838 16.5587 44.5451 16.5637C44.5217 16.5667 44.4993 16.5672 44.477 16.5672C44.4047 16.5602 44.3325 16.5532 44.2603 16.5463H44.006C43.978 16.5438 43.9501 16.5408 43.9221 16.5383C43.8427 16.5308 43.7634 16.5253 43.6841 16.5153C43.6139 16.5068 43.5422 16.5003 43.475 16.4794C43.4272 16.4644 43.3692 16.4375 43.3469 16.3985C43.3041 16.3242 43.2629 16.2394 43.2574 16.1565C43.2441 15.9679 43.2533 15.7778 43.2523 15.5881C43.2523 15.5502 43.2619 15.5018 43.2426 15.4764C43.1999 15.419 43.2156 15.3611 43.2146 15.3012C43.2131 15.1889 43.2101 15.0761 43.2034 14.9639C43.1994 14.8975 43.1892 14.8311 43.1831 14.7648C43.1795 13.5451 43.1831 14.6679 43.1831 14.6265L43.1795 13.5451C43.1643 13.4274 43.1546 13.3086 43.1521 13.1888C43.148 12.9633 43.1521 12.7367 43.1363 12.5117C43.0997 11.9982 43.1475 11.4867 43.1653 10.9742C43.1729 10.7486 43.204 10.5166 43.1643 10.298C43.1205 10.0535 43.1338 9.81298 43.1338 9.57195C43.1338 9.26356 43.1612 8.95566 43.1765 8.64727C43.1861 8.44367 43.1958 8.23957 43.2034 8.03597C43.206 7.9711 43.2045 7.90523 43.2014 7.84036C43.1836 7.4631 43.1648 7.08634 43.146 6.70908C43.1399 6.59181 43.1277 6.47504 43.1246 6.35777C43.12 6.15816 43.1078 5.95805 43.1226 5.75944C43.1333 5.61523 43.1287 5.46552 43.1851 5.3258C43.1953 5.30035 43.1943 5.25743 43.179 5.23697C43.0951 5.12918 43.1572 5.00992 43.145 4.89714C43.1434 4.88117 43.1485 4.86021 43.1587 4.84823C43.2289 4.76689 43.2884 4.67158 43.4033 4.64264C43.5142 4.61419 43.6246 4.58126 43.737 4.56529C43.7476 4.56379 43.7588 4.56279 43.7695 4.5613H44.0238C44.0482 4.5583 44.0726 4.55481 44.097 4.55231H44.3513C44.4388 4.54333 44.5273 4.53934 44.6148 4.54483C44.7374 4.55231 44.8579 4.58775 44.98 4.60771C45.041 4.61769 45.1046 4.63365 45.1641 4.62617C45.339 4.60321 45.5135 4.57477 45.6859 4.53884C45.8497 4.50491 46.0104 4.456 46.1736 4.41908C46.2637 4.39862 46.3288 4.36369 46.34 4.26238C46.344 4.22496 46.3705 4.19053 46.3832 4.1541C46.3944 4.12166 46.4101 4.08773 46.4091 4.05479C46.402 3.85518 46.3929 3.65608 46.3806 3.45697C46.3532 3.02332 46.3247 2.58967 46.2942 2.15652C46.2866 2.04873 46.2601 1.94144 46.2576 1.83366C46.253 1.65351 46.2067 1.48185 46.1569 1.31168C46.0918 1.09111 46.0124 0.876037 46.0084 0.6405C46.0068 0.549678 45.9611 0.45736 45.9234 0.37053C45.8899 0.292683 45.8156 0.256754 45.7327 0.248271C45.5883 0.233799 45.4433 0.224817 45.2989 0.212341C45.2724 0.210345 45.246 0.207351 45.2205 0.201363C44.9484 0.137987 44.6738 0.103056 44.3931 0.107547C44.2512 0.110042 44.1087 0.109543 43.9668 0.104553C43.7171 0.104553 43.9572 0.104553 43.7263 0.104553H43.4582C43.3881 0.102058 43.3174 0.0990637 43.2472 0.0945725C42.8632 0.0686235 42.4787 0.0541519 42.0937 0.0516568C42.0881 0.0516568 42.0825 0.0516568 42.0764 0.0516568C42.0505 0.0516568 42.025 0.0506588 41.9996 0.0506588C41.9462 0.0506588 41.8928 0.0506588 41.8394 0.0511578C41.8394 0.0536529 41.8394 0.055649 41.8394 0.0581441C41.6822 0.0656294 41.5251 0.0806 41.3689 0.110541C41.286 0.12651 41.2016 0.135492 41.1172 0.143476C41.1172 0.15196 41.1172 0.160443 41.1172 0.169425C40.9529 0.188388 40.7891 0.208349 40.6254 0.22831C40.6167 0.229308 40.6091 0.234797 40.6004 0.236793C40.4326 0.272723 40.2653 0.314141 40.0959 0.342086C39.9398 0.368035 39.7806 0.377517 39.6234 0.398975C39.5059 0.414943 39.39 0.447379 39.272 0.456362C39.1057 0.469336 38.9668 0.571635 38.9439 0.73232C38.9302 0.830127 38.9261 0.932426 38.9368 1.03073C38.98 1.42695 39.0345 1.82218 39.0767 2.2184C39.1041 2.47689 39.1179 2.73688 39.1387 2.99587C39.1494 3.12961 39.1581 3.26385 39.1743 3.39708C39.1998 3.60767 39.2308 3.81776 39.2598 4.02785C39.2684 4.09222 39.2674 4.16009 39.2883 4.22047C39.3376 4.36169 39.3305 4.50441 39.3101 4.64663C39.2628 4.97648 39.2689 5.30234 39.3366 5.6302C39.3854 5.86773 39.4164 6.11075 39.391 6.35577C39.3854 6.41066 39.3803 6.46556 39.3762 6.52045C39.3727 6.51895 39.3696 6.51795 39.3661 6.51646C39.3503 6.78044 39.3462 7.04542 39.3376 7.3099C39.334 7.41818 39.3228 7.52597 39.3218 7.63376C39.3208 7.7146 39.304 7.81091 39.3412 7.87379C39.4129 7.99505 39.3818 8.11033 39.363 8.2271C39.3401 8.37081 39.2791 8.41423 39.1275 8.42121C39.008 8.4267 38.889 8.43818 38.77 8.43968C38.6332 8.44118 38.4959 8.43569 38.3591 8.43119C38.1561 8.42421 37.9547 8.37231 37.7497 8.40724C37.6846 8.41822 37.6201 8.44068 37.5544 8.44267C37.3424 8.44966 37.1293 8.45415 36.9172 8.45066C36.6522 8.44616 36.3877 8.43169 36.1227 8.42221C36.0739 8.42072 36.0246 8.41772 35.9768 8.42421C35.5897 8.4766 35.2017 8.50405 34.8111 8.49507C34.7622 8.49407 34.7129 8.49307 34.6651 8.50156C34.4652 8.53599 34.2674 8.51253 34.0695 8.48509C33.7929 8.44666 33.5162 8.41173 33.2359 8.4267C33.0457 8.43668 32.856 8.45165 32.6663 8.46064C32.6007 8.46363 32.5341 8.45814 32.468 8.45215C32.3667 8.44367 32.2655 8.42171 32.1648 8.42271C32.028 8.42421 31.8912 8.4272 31.7544 8.43119C31.7544 8.43369 31.7544 8.43618 31.7544 8.43868C31.6573 8.44167 31.5601 8.44417 31.4635 8.44716C31.4106 8.44866 31.3572 8.44766 31.3048 8.45415C31.0505 8.48509 30.7972 8.52501 30.5424 8.54896C30.2474 8.57691 29.9509 8.59388 29.6549 8.61084C29.3945 8.62581 29.1336 8.6308 28.8732 8.64527C28.5996 8.66024 28.3265 8.6812 28.0533 8.70017C27.974 8.70565 27.8947 8.71514 27.8153 8.71913C27.7227 8.72362 27.6276 8.7361 27.5371 8.72262C27.4944 8.71614 27.4517 8.71164 27.4089 8.70615L27.1572 8.62481C27.0417 8.61483 26.9268 8.60535 26.8113 8.59787C26.6476 8.58789 26.4833 8.59138 26.319 8.58938C26.3226 8.58589 26.3266 8.5824 26.3307 8.5789C26.3226 8.57841 26.3139 8.57791 26.3058 8.57691C26.3083 8.57192 26.3114 8.56693 26.3139 8.56144C26.053 8.55046 25.7921 8.54098 25.5317 8.5285C25.488 8.52651 25.4447 8.51253 25.4015 8.50555C25.3171 8.49158 25.2652 8.44367 25.2505 8.36233C25.2276 8.23458 25.2087 8.10583 25.1894 7.97709C25.1828 7.93417 25.1772 7.89076 25.1772 7.84784C25.1772 7.75802 25.1752 7.6672 25.1854 7.57837C25.2001 7.44513 25.2286 7.31289 25.2433 7.17915C25.2484 7.13374 25.2199 7.08534 25.223 7.03893C25.226 6.99402 25.2291 6.94961 25.2321 6.90469L25.2474 6.75599C25.2479 6.62225 25.2484 6.48851 25.2489 6.35477H25.2494C25.2494 6.32683 25.2494 6.29888 25.2494 6.27094C25.2494 6.26645 25.2494 6.26246 25.2489 6.25846C25.2489 6.241 25.2489 6.22303 25.2489 6.20557C25.2479 6.20557 25.2464 6.20557 25.2464 6.20557C25.2301 5.85476 25.2484 6.24699 25.2281 5.80785C25.226 5.77641 25.225 5.74547 25.224 5.71403C25.2194 5.51442 25.2072 5.31432 25.222 5.11571C25.226 5.06231 25.2281 5.00842 25.2316 4.95452C25.2459 4.85023 25.2744 4.7624 25.2738 4.66609C25.2738 4.62817 25.2835 4.57976 25.2642 4.55431C25.2347 4.51489 25.2332 4.47547 25.2347 4.43505C25.2372 4.37466 25.251 4.31328 25.2449 4.2539C25.2433 4.23793 25.2484 4.21697 25.2586 4.205C25.3288 4.12366 25.3883 4.02834 25.5032 3.9994C25.6141 3.97096 25.7245 3.93802 25.8369 3.92205C25.872 3.91706 25.9071 3.91307 25.9427 3.90958H26.197C26.2519 3.90409 26.3073 3.9006 26.3622 3.9001L26.4802 3.89111C26.6715 3.88612 26.8632 3.89261 27.055 3.8991C27.055 3.90309 27.0539 3.90758 27.0539 3.91157C27.1765 3.91956 27.2986 3.92854 27.4211 3.93353C27.5936 3.94002 27.766 3.93253 27.9379 3.94102C28.1942 3.95299 28.4495 3.98044 28.7059 3.98742C28.8905 3.99241 29.0782 4.00289 29.2592 3.94451C29.364 3.91058 29.4733 3.88812 29.5735 3.84421C29.6539 3.80927 29.7271 3.75039 29.7388 3.65458C29.749 3.57324 29.7465 3.4909 29.7495 3.40856C29.7607 3.12262 29.7785 2.83669 29.7805 2.55025C29.7815 2.37759 29.7653 2.20343 29.7429 2.03227C29.7337 1.9619 29.722 1.89803 29.75 1.82966C29.7617 1.80072 29.7658 1.75731 29.7521 1.73186C29.7093 1.65501 29.7281 1.58115 29.7398 1.5033C29.7526 1.42296 29.7597 1.34112 29.7622 1.25978C29.7663 1.13453 29.7495 1.00628 29.7704 0.884521C29.7922 0.754276 29.8044 0.626527 29.7882 0.496283C29.7627 0.288192 29.6468 0.172919 29.4337 0.163936C29.2485 0.156451 29.0624 0.157948 28.8768 0.16194C28.5095 0.169925 28.1418 0.177909 27.7751 0.194376C27.6164 0.201862 27.4578 0.208848 27.2991 0.212341C27.2421 0.211343 27.1846 0.209846 27.1277 0.206353C27.027 0.200365 26.9237 0.212341 26.8235 0.227312C26.6466 0.254259 26.4721 0.256255 26.2961 0.22332C26.1171 0.189885 25.9381 0.176911 25.755 0.195375C25.6421 0.206852 25.5261 0.189386 25.4112 0.183398C25.3629 0.180903 25.3145 0.171921 25.2662 0.171921C24.9651 0.170424 24.6645 0.170424 24.3635 0.169425C24.3416 0.169425 24.3192 0.165433 24.2973 0.164934C24.1966 0.163437 24.0954 0.157449 23.9947 0.16194C23.9022 0.166431 23.8106 0.189386 23.7181 0.191881C23.4526 0.200365 23.1866 0.196872 22.9216 0.209347C22.7904 0.215335 22.6607 0.254758 22.5295 0.262243C22.3352 0.273222 22.1399 0.269229 21.9451 0.271724C21.6842 0.275218 21.4233 0.272723 21.1639 0.317634C20.9416 0.356059 20.7178 0.386998 20.49 0.366039C20.4264 0.360051 20.3593 0.382008 20.2947 0.396479C20.0678 0.447379 19.84 0.461352 19.6081 0.439395C19.4718 0.426421 19.3344 0.41644 19.1981 0.419933C19.0664 0.423426 18.9347 0.445882 18.803 0.459356C18.6534 0.474825 18.5034 0.483808 18.3549 0.506763C18.1591 0.537203 17.9684 0.521234 17.7766 0.479816C17.7273 0.469336 17.6713 0.471831 17.6215 0.482311C17.5315 0.501273 17.443 0.528221 17.356 0.557663C17.327 0.567643 17.2889 0.592095 17.2817 0.617545C17.2558 0.708866 17.2309 0.802681 17.2248 0.896996C17.2141 1.06117 17.2131 1.22635 17.2166 1.39053C17.2212 1.57716 17.2116 1.76828 17.2517 1.94843C17.3036 2.18147 17.3051 2.41152 17.297 2.64556C17.296 2.67999 17.2914 2.71492 17.2934 2.74936C17.3041 2.92651 17.3245 3.10366 17.3255 3.28081C17.3265 3.51385 17.4242 3.71795 17.5004 3.92954C17.5045 3.94052 17.5167 3.9495 17.5264 3.95798C17.6815 4.09222 17.8575 4.17555 18.0691 4.13763C18.1616 4.12116 18.2501 4.1027 18.3442 4.11966C18.3732 4.12465 18.4052 4.11368 18.4358 4.10919C18.5883 4.08623 18.7404 4.05579 18.894 4.04082C19.1712 4.01387 19.4499 3.99591 19.7276 3.97445C19.754 3.97245 19.7805 3.97345 19.8069 3.97345C19.96 3.97345 20.1126 3.97245 20.2657 3.97245H20.52C20.5703 3.97245 20.6207 3.97245 20.6715 3.97245C20.7372 3.97245 20.8038 3.97445 20.8684 3.98593C20.9523 4.0009 21.0321 4.03034 21.0815 4.10569C21.1359 4.18953 21.1873 4.27236 21.1827 4.38115C21.1781 4.49293 21.1878 4.60571 21.1974 4.71749C21.2137 4.90313 21.2356 5.08826 21.2534 5.2739C21.2732 5.4765 21.3017 5.6791 21.3063 5.8822C21.3073 5.92911 21.3149 5.97602 21.3215 6.02342L21.3251 6.12073C21.3251 6.15367 21.3251 6.26595 21.3236 6.6477C21.3236 6.68912 21.3271 5.56632 21.3236 6.78593C21.3175 6.8523 21.3073 6.91867 21.3032 6.98504C21.2966 7.09732 21.2941 7.21009 21.292 7.32237C21.291 7.38176 21.3068 7.44014 21.2641 7.49753C21.2447 7.52298 21.2549 7.57138 21.2544 7.60931C21.2534 7.79894 21.2625 7.98906 21.2493 8.17769C21.2437 8.26053 21.2025 8.34586 21.1598 8.41972C21.1374 8.45864 21.0794 8.48609 21.0316 8.50056C20.965 8.52152 20.8928 8.52751 20.8226 8.53649C20.7438 8.54647 20.6639 8.55146 20.5846 8.55944C20.4844 8.56942 20.3842 8.5789 20.2835 8.58888C20.2611 8.58888 20.2387 8.58839 20.2153 8.58539C20.1767 8.5804 20.1345 8.58389 20.0963 8.59338C20.0114 8.61483 19.9254 8.62182 19.84 8.62232C19.813 8.62132 19.7866 8.61733 19.7657 8.60585C19.6757 8.55595 19.5877 8.57391 19.4952 8.58689C19.3863 8.60236 19.276 8.61833 19.1661 8.61833C18.9276 8.61833 18.689 8.60535 18.451 8.60286C18.1459 8.59986 17.8407 8.59986 17.536 8.60286C17.2792 8.60485 17.0224 8.61833 16.7655 8.61683C16.3408 8.61433 15.9157 8.59986 15.491 8.59787C15.2301 8.59687 14.9692 8.60685 14.7082 8.61683C14.5852 8.62182 14.4626 8.64228 14.3395 8.64927C14.2739 8.65276 14.2078 8.63879 14.1417 8.63929C13.987 8.64078 13.8319 8.64777 13.6773 8.65076C13.4734 8.65426 13.2699 8.65526 13.066 8.65775C12.8091 8.66124 12.5528 8.66523 12.296 8.66973C12.2166 8.67122 12.1368 8.67072 12.0574 8.67023L9.65074 8.61533C9.44273 8.64028 9.23522 8.67771 9.0267 8.6842C8.72611 8.69368 8.42452 8.6807 8.12393 8.67322C7.89863 8.66773 7.76283 8.54447 7.7374 8.3244C7.72977 8.25604 7.72875 8.18468 7.73943 8.11681C7.78877 7.80393 7.85234 7.49204 7.7908 7.17317C7.78165 7.12676 7.78623 7.07785 7.78724 7.02995C7.79487 6.73902 7.81725 6.44759 7.80657 6.15716C7.79792 5.91963 7.90626 5.67361 7.76283 5.44406C7.76385 5.34675 7.76385 5.24945 7.76486 5.15164L7.79029 4.79534C7.76893 4.60821 7.743 4.42157 7.7196 4.23494C7.7135 4.18753 7.71858 4.13613 7.70129 4.09322C7.63975 3.93752 7.65959 3.77584 7.65399 3.61615C7.65094 3.53382 7.66009 3.45048 7.65348 3.36864C7.64331 3.24389 7.64077 3.11514 7.60517 2.99687C7.57058 2.8801 7.57007 2.76682 7.57007 2.65005C7.57007 2.51132 7.566 2.3721 7.56143 2.23337C7.55837 2.13806 7.5482 2.04275 7.54566 1.94743C7.54159 1.79573 7.54006 1.64453 7.49633 1.49682C7.48412 1.4554 7.4709 1.40999 7.477 1.36857C7.51413 1.12106 7.40427 0.877534 7.45869 0.630021C7.46123 0.618044 7.45411 0.604571 7.4536 0.591596C7.45208 0.460354 7.38189 0.352566 7.33713 0.234797C7.29848 0.133496 7.23236 0.0736137 7.1342 0.0481637C7.0452 0.0252088 6.95213 0.00674508 6.86058 0.00474901C6.58136 -0.00123923 6.30214 -0.00074021 6.02343 0.00175489C5.97867 0.00175489 5.9334 0.00424999 5.88865 0.0072441H5.63435C5.57332 0.0112363 5.51229 0.0162265 5.45176 0.0212167C5.29817 0.0336921 5.14457 0.0476647 4.99097 0.0611382H4.83839C4.82059 0.0626353 4.80279 0.0641323 4.78448 0.0661284C4.72345 0.0716176 4.66242 0.0781049 4.60139 0.0835941C4.46508 0.0955706 4.33285 0.0980657 4.19502 0.0606392C4.08465 0.030199 3.95699 0.0326941 3.84256 0.0526549C3.74542 0.0696216 3.65438 0.0900814 3.55571 0.0721167C3.50383 0.0626353 3.44941 0.0586431 3.39703 0.0641323C3.24597 0.0806 3.09492 0.0970676 2.94488 0.117028C2.94488 0.128506 2.94488 0.139983 2.94488 0.151461C2.83452 0.161441 2.72619 0.157948 2.6143 0.139983C2.4902 0.120023 2.36051 0.127508 2.23387 0.135492C2.14232 0.14148 2.0523 0.170424 1.96075 0.184895C1.74714 0.219327 1.53302 0.250766 1.31941 0.284699C1.22786 0.299171 1.13631 0.328114 1.04527 0.327615C0.799111 0.326617 0.563122 0.382008 0.326115 0.434904C0.230499 0.456362 0.122168 0.461851 0.0906345 0.583612C0.0886001 0.590598 0.0753766 0.594091 0.0718164 0.601077C0.0463865 0.649482 0.0026471 0.697887 0.0016299 0.74729C-0.00294748 0.929432 0.0026471 1.11207 0.0118019 1.29422C0.0184136 1.43244 0.0392661 1.57017 0.0468951 1.7084C0.0514725 1.79024 0.0413005 1.87308 0.0407919 1.95542C0.0407919 1.99384 0.0413005 2.03376 0.0524897 2.07019C0.103349 2.24185 0.135391 2.41551 0.14302 2.59266C0.144037 2.59266 0.145563 2.59266 0.14658 2.59266C0.151666 2.63209 0.160821 2.67101 0.17557 2.70594C0.264066 2.91803 0.263558 3.13909 0.25542 3.36016C0.247791 3.58022 0.355105 3.72394 0.573294 3.76786C0.612456 3.77584 0.652126 3.78233 0.691797 3.78432C0.877435 3.7953 1.06256 3.80678 1.2482 3.81426C1.60219 3.82824 1.95617 3.83772 2.29998 3.93553C2.32084 3.94151 2.34372 3.94151 2.36559 3.94401C2.45561 3.95299 2.54614 3.96148 2.63617 3.97046C2.63464 3.97844 2.63311 3.98693 2.63159 3.99491C2.72212 4.00389 2.81214 4.01238 2.90267 4.02136C2.98201 4.02884 3.06135 4.03433 3.14069 4.04431C3.21088 4.0528 3.28259 4.05928 3.34973 4.08024C3.39754 4.09521 3.45552 4.12216 3.4779 4.16108C3.52062 4.23544 3.56181 4.32027 3.56741 4.40311C3.58063 4.59174 3.57148 4.78186 3.57249 4.97149C3.57249 5.00942 3.56283 5.05782 3.58216 5.08327C3.62488 5.14066 3.60911 5.19855 3.61013 5.25843C3.61166 5.37071 3.61471 5.48349 3.62132 5.59576C3.62539 5.66213 3.63556 5.7285 3.64166 5.79487V6.04438C3.6437 6.06434 3.64522 6.0843 3.64573 6.10427C3.65234 6.28242 3.64522 6.46107 3.65946 6.63822C3.67574 6.83633 3.71694 7.03244 3.73423 7.23005C3.74491 7.35481 3.76678 7.47657 3.78916 7.59983C3.8095 7.70961 3.80848 7.82339 3.8156 7.93517C3.82272 8.04745 3.82679 8.15973 3.83544 8.27201C3.84103 8.34536 3.85578 8.41822 3.85934 8.49158C3.86545 8.61234 3.85934 8.7341 3.87002 8.85436C3.90563 9.2436 3.91681 9.63233 3.87714 10.0226C3.85833 10.2072 3.86036 10.3948 3.86596 10.581C3.87257 10.801 3.90359 11.0206 3.90512 11.2407C3.90715 11.4922 3.89088 11.7437 3.87867 11.9952C3.87358 12.0955 3.86189 12.1928 3.93055 12.2806C3.94733 12.3021 3.9514 12.339 3.94937 12.368C3.93919 12.5276 3.93462 12.6888 3.90868 12.8465C3.89139 12.9513 3.88223 13.0521 3.89952 13.1564C3.90664 13.1993 3.90613 13.2432 3.90766 13.2867C3.91732 13.5726 3.92699 13.8585 3.93563 14.1445C3.94072 14.3101 3.9453 14.4758 3.95038 14.6415C3.95852 14.6475 3.96666 14.654 3.97479 14.66C3.97479 14.7458 3.97378 14.8316 3.97327 14.9175C3.97734 14.9194 3.9809 14.9209 3.98497 14.9229C3.98954 15.0442 3.99514 15.165 3.99819 15.2862C3.99921 15.3341 4.00379 15.383 3.99463 15.4294C3.93309 15.7483 3.99717 16.0602 4.046 16.3731C4.05668 16.441 4.05617 16.5123 4.04803 16.5807C4.0226 16.8003 3.88681 16.9235 3.6615 16.9295C3.50129 16.9335 3.34108 16.939 3.18087 16.9415V16.943C3.12493 16.943 3.06898 16.942 3.01304 16.9405C2.88741 16.9365 2.76179 16.9215 2.63667 16.9045L2.49834 16.8631C2.45358 16.8736 2.40882 16.8856 2.36407 16.8981C2.31778 16.911 2.26896 16.923 2.22166 16.9225C1.72984 16.9155 1.23956 16.9549 0.74876 16.9804C0.669927 16.9844 0.59262 17.0048 0.514296 17.0163C0.423257 17.0303 0.332218 17.0538 0.241179 17.0538C0.129288 17.0538 0.0845313 17.1241 0.0463865 17.203C0.0138362 17.2708 0.00417289 17.3492 0.0585928 17.4101C0.11403 17.4719 0.119116 17.5453 0.0941947 17.6052C0.0423177 17.7284 0.0362145 17.8452 0.0585928 17.9759C0.0784282 18.0912 0.0585928 18.2115 0.064696 18.3307C0.0692734 18.4106 0.0718164 18.4904 0.0738508 18.5708V19.1696C0.0794453 19.4051 0.0763938 19.6412 0.0789367 19.8767C0.0789367 19.8982 0.0880915 19.9196 0.0886001 19.9411C0.0941947 20.0883 0.098772 20.235 0.102332 20.3822C0.102332 20.4032 0.0997893 20.4286 0.0875829 20.4441C0.0377403 20.5075 0.0692734 20.5564 0.121659 20.5858C0.239145 20.6512 0.354088 20.7205 0.501581 20.7141C0.672979 20.7061 0.845902 20.7096 1.0173 20.7206C1.29092 20.7385 1.56353 20.7685 1.83665 20.7899C1.98211 20.8014 2.12808 20.8089 2.27404 20.8129C2.37068 20.8154 2.46782 20.8094 2.56496 20.8074C2.64023 20.8059 2.71551 20.8079 2.79027 20.8024C2.96625 20.7899 3.1412 20.759 3.31921 20.7979C3.38431 20.8124 3.45501 20.8034 3.52367 20.8024V20.8034C3.74237 20.8049 3.96055 20.8064 4.17925 20.8084C4.29419 20.8094 4.40965 20.8194 4.52408 20.8114C4.84195 20.7899 5.15881 20.756 5.47668 20.738C5.49194 20.737 5.5072 20.738 5.52246 20.737H5.79456C5.821 20.737 5.75285 20.737 5.92934 20.737C6.07734 20.733 6.22636 20.748 6.37436 20.7455C6.56 20.7425 6.74563 20.7325 6.93127 20.7325H7.18557C7.0213 20.7325 7.51362 20.723 7.67739 20.7186C7.82793 20.7146 7.97848 20.7106 8.12546 20.7535C8.14631 20.7595 8.1692 20.757 8.19158 20.76C8.26532 20.7695 8.33907 20.7764 8.4118 20.7904C8.50996 20.8099 8.56285 20.7949 8.61626 20.7126C8.64169 20.6731 8.6661 20.6282 8.67322 20.5828C8.68746 20.498 8.69865 20.4102 8.69306 20.3248C8.68085 20.1342 8.66559 19.9436 8.63609 19.7549C8.60863 19.5798 8.56082 19.4076 8.5242 19.2335C8.49267 19.0853 8.46826 18.9351 8.43215 18.7878C8.36755 18.5219 8.29584 18.2584 8.2816 17.9819C8.26431 17.6486 8.23837 17.3152 8.14326 16.9914C8.13106 16.95 8.12088 16.905 8.12495 16.8626C8.1397 16.7094 8.06646 16.5782 8.02527 16.439C8.00035 16.3561 7.97492 16.2728 7.95915 16.188C7.92151 15.9888 7.95864 15.7892 7.96423 15.5901C7.96678 15.5043 7.97186 15.419 7.97492 15.3336C7.97898 15.3002 7.98305 15.2668 7.98611 15.2328C8.00085 15.0557 7.99323 14.8765 7.99984 14.6989C8.00035 14.6789 8.00238 14.659 8.00391 14.639V14.3895C8.01001 14.3231 8.02018 14.2568 8.02425 14.1904C8.03086 14.0781 8.03341 13.9653 8.03544 13.853C8.03646 13.7937 8.02069 13.7353 8.06341 13.6779C8.08274 13.6524 8.07257 13.604 8.07308 13.5661C8.07409 13.3765 8.06494 13.1864 8.07816 12.9977C8.08376 12.9149 8.12495 12.8296 8.16767 12.7557C8.19005 12.7168 8.24803 12.6893 8.29584 12.6749C8.36247 12.6539 8.43469 12.6479 8.50488 12.6389C8.58371 12.6289 8.66356 12.624 8.7429 12.616C9.00686 12.5905 9.27031 12.5646 9.53428 12.5386C9.55615 12.5366 9.57903 12.5361 9.59988 12.5301C9.73771 12.4912 9.87707 12.4663 10.018 12.4498L10.3007 12.4583C10.4665 12.4528 10.6323 12.4423 10.7981 12.4243C11.0555 12.3964 11.3195 12.4273 11.5804 12.4298C11.8016 12.4318 12.0228 12.4323 12.2446 12.4308C12.3417 12.4298 12.4389 12.4204 12.5365 12.4179C12.6372 12.4149 12.7334 12.4114 12.8341 12.3804C12.9495 12.345 13.0792 12.3445 13.2028 12.3455C13.3661 12.3465 13.5293 12.366 13.6926 12.373C13.8121 12.3784 13.9316 12.3749 14.0511 12.3799C14.1788 12.3854 14.3059 12.3979 14.4336 12.4039C14.5709 12.4099 14.7082 12.4164 14.8451 12.4134C14.8751 12.4129 14.9056 12.4134 14.9356 12.4134L16.4014 12.589C16.5026 12.5865 16.6033 12.59 16.7055 12.598C16.8988 12.613 17.0951 12.619 17.2873 12.6005C17.5142 12.579 17.7319 12.5027 17.9673 12.5162C18.1423 12.5261 18.3198 12.4887 18.4968 12.4782C18.6199 12.4708 18.744 12.4757 18.867 12.4698C19.0969 12.4578 19.3263 12.4423 19.5557 12.4273C19.631 12.4224 19.7062 12.4169 19.7815 12.4114C19.7835 12.4034 19.7856 12.3954 19.7881 12.3874C19.813 12.3919 19.838 12.3984 19.8634 12.4099C19.901 12.4273 19.956 12.4174 20.0012 12.4104C20.079 12.3984 20.1553 12.372 20.2296 12.4253C20.2443 12.4363 20.2708 12.4358 20.2911 12.4338C20.3089 12.4323 20.3262 12.4298 20.344 12.4278L20.404 12.3779L20.6578 12.365C20.6934 12.367 20.7285 12.369 20.7641 12.372C20.8775 12.3819 20.9894 12.4099 21.1013 12.4323C21.2178 12.4558 21.2824 12.5476 21.3566 12.625C21.3673 12.6364 21.3739 12.6569 21.3729 12.6729C21.3699 12.7327 21.3871 12.7931 21.3927 12.8535C21.3963 12.8934 21.3968 12.9333 21.3693 12.9743C21.3515 13.0007 21.3637 13.0486 21.3658 13.0865C21.3704 13.1824 21.4039 13.2687 21.4233 13.372C21.4299 13.4259 21.4344 13.4798 21.4416 13.5327C21.467 13.7298 21.466 13.9309 21.4716 14.13C21.4751 14.2473 21.469 14.3645 21.469 14.4818C21.4695 14.7498 21.4711 15.0173 21.4726 15.2852L21.4878 15.4339C21.4909 15.4788 21.494 15.5233 21.497 15.5682C21.5001 15.6141 21.4716 15.663 21.4767 15.7084C21.4914 15.8421 21.5194 15.9739 21.5346 16.1076C21.5448 16.1969 21.5428 16.2873 21.5428 16.3771C21.5428 16.42 21.5367 16.4634 21.5306 16.5063C21.5112 16.6351 21.4924 16.7633 21.4695 16.8916C21.4553 16.9729 21.4029 17.0208 21.3185 17.0348C21.2747 17.0418 21.232 17.0558 21.1883 17.0577C20.9274 17.0697 20.6665 17.0797 20.4061 17.0907C20.4086 17.0957 20.4117 17.1007 20.4142 17.1062C20.4061 17.1067 20.3974 17.1071 20.3893 17.1081C20.3928 17.1116 20.3969 17.1151 20.401 17.1186C20.2367 17.1201 20.0724 17.1171 19.9087 17.1271C19.5867 17.1466 19.2653 17.186 18.9433 17.1985C18.7521 17.206 18.568 17.2439 18.3818 17.2768C18.3544 17.2818 18.3259 17.3028 18.3066 17.3242C18.2608 17.3761 18.2221 17.434 18.1769 17.4864C18.1113 17.5623 18.0869 17.6521 18.0721 17.7469C18.0513 17.8831 18.0284 18.0194 18.008 18.1556C17.9989 18.2195 17.9867 18.2843 17.9887 18.3482C17.9989 18.6087 18.0121 18.8692 18.0284 19.1292C18.0329 19.206 18.0548 19.2814 18.064 19.3577C18.0762 19.465 18.0909 19.5733 18.0919 19.6811C18.0945 19.9625 18.0879 20.244 18.0899 20.5259C18.0899 20.5778 18.1011 20.6257 18.0706 20.6756C18.0375 20.73 18.0482 20.7949 18.1057 20.8228C18.2191 20.8787 18.332 20.9346 18.4688 20.9336C18.7918 20.9321 19.1147 20.9446 19.4377 20.9491C19.7922 20.9541 20.1462 20.9401 20.4971 20.8862C20.9025 20.8243 21.3109 20.8493 21.7177 20.8313C22.0977 20.8149 22.4786 20.8273 22.8595 20.8258C22.917 20.8258 22.9745 20.8159 23.0319 20.8144C23.1596 20.8114 23.2878 20.8054 23.4154 20.8104C23.5385 20.8154 23.6616 20.8438 23.7847 20.8428C24.0634 20.8403 24.3421 20.8258 24.6208 20.8169C24.8288 20.8104 25.0384 20.7859 25.2438 20.8039C25.5393 20.8293 25.8328 20.8732 26.1308 20.8508C26.2315 20.8433 26.3312 20.8214 26.4314 20.8204C26.6343 20.8184 26.8378 20.8253 27.0407 20.8303C27.2131 20.8348 27.3891 20.8663 27.5569 20.8413C27.8652 20.7959 28.1668 20.8298 28.4683 20.8703C28.5706 20.8837 28.6677 20.8922 28.7699 20.8822C28.8473 20.8747 28.9007 20.8368 28.9474 20.7819C28.9866 20.7355 29.0222 20.6841 29.0685 20.6457C29.1209 20.6028 29.1463 20.5514 29.1509 20.489C29.1646 20.2859 29.1763 20.0823 29.1875 19.8787C29.1926 19.7879 29.1987 19.6966 29.1967 19.6057C29.1936 19.4935 29.1794 19.3812 29.1748 19.2689C29.1646 19.0134 29.1692 18.7564 29.1458 18.5024C29.1316 18.3497 29.127 18.2 29.1443 18.0483C29.1656 17.8627 29.186 17.677 29.1987 17.4909C29.2043 17.4096 29.1977 17.3247 29.1804 17.2454C29.1489 17.1012 28.9953 17.0128 28.8483 17.0383C28.7394 17.0572 28.6301 17.0772 28.5202 17.0817C28.3707 17.0877 28.2217 17.0902 28.0737 17.1151C28.036 17.1216 27.9984 17.1261 27.9603 17.1306H27.706C27.6515 17.1366 27.5971 17.1416 27.5432 17.1481C27.5188 17.1511 27.4949 17.1541 27.4705 17.1571L27.3652 17.0692C27.0972 17.0772 26.823 17.0957 26.5652 17.0627C26.5575 17.0717 26.5489 17.0797 26.5408 17.0882C26.4106 17.0782 26.2834 17.0548 26.1624 17.0103C26.0983 17.0118 26.0337 17.0133 25.9696 17.0148C25.7443 17.0208 25.6019 16.9045 25.5648 16.6865C25.5531 16.6186 25.549 16.5473 25.5556 16.4794C25.5663 16.3731 25.579 16.2673 25.5877 16.161C25.5256 15.2927 25.577 16.0138 25.5343 15.412C25.5353 15.3765 25.5363 15.3406 25.5363 15.3052C25.5363 15.2358 25.5337 15.166 25.5373 15.0966C25.5409 15.0237 25.551 14.9514 25.5582 14.8785C25.5597 14.8611 25.5693 14.8391 25.5617 14.8276C25.4753 14.6944 25.5287 14.5477 25.5246 14.4085C25.5185 14.2054 25.5363 14.0018 25.5449 13.7982C25.5531 13.612 25.5648 13.4259 25.5714 13.2397C25.5749 13.1275 25.579 13.0147 25.5683 12.9034C25.5582 12.7951 25.6044 12.7098 25.6548 12.623C25.6995 12.5451 25.7784 12.5112 25.8613 12.4922C25.9249 12.4777 25.9915 12.4728 26.0571 12.4688C26.1074 12.4658 26.1578 12.4633 26.2081 12.4608L26.4619 12.4478C26.5102 12.4453 26.5581 12.4433 26.6064 12.4408L26.8734 12.4243C26.9782 12.4243 27.0829 12.4243 27.1877 12.4248C27.2141 12.4248 27.2406 12.4239 27.267 12.4258C27.4039 12.4363 27.5412 12.4463 27.678 12.4568C27.6877 12.4708 27.6973 12.4842 27.7065 12.4982C27.7136 12.4982 27.7207 12.4982 27.7278 12.4982C27.8214 12.4982 27.914 12.4957 28.0065 12.4842C28.0254 12.4857 28.0442 12.4872 28.0635 12.4892C28.0635 12.4847 28.0635 12.4807 28.063 12.4762C28.1133 12.4678 28.1632 12.4568 28.213 12.4413C28.3 12.4144 28.3961 12.4134 28.4887 12.4089C28.6052 12.4034 28.7221 12.4049 28.8386 12.4019H29.0929C29.1133 12.4014 29.1336 12.4009 29.1539 12.4004C29.3482 12.3924 29.5425 12.3794 29.7368 12.3685C29.8517 12.362 29.9682 12.3645 30.0806 12.3445C30.2545 12.3136 30.4244 12.2632 30.5973 12.2272C30.6782 12.2103 30.7672 12.1868 30.8445 12.2033C30.99 12.2342 31.1349 12.2312 31.2783 12.2232C31.5866 12.2058 31.8932 12.1674 32.202 12.1589V12.1579C32.322 12.1584 32.442 12.1534 32.5615 12.1479C32.6892 12.1424 32.8163 12.1294 32.944 12.1239C33.0635 12.1189 33.183 12.1224 33.3026 12.117C33.4658 12.1095 33.6291 12.0905 33.7923 12.0895C33.9159 12.0885 34.0456 12.0895 34.1611 12.1244C34.2618 12.1554 34.3579 12.1589 34.4586 12.1619C34.5558 12.1649 34.6529 12.1743 34.7505 12.1748C34.9718 12.1763 35.193 12.1758 35.4148 12.1738C35.6757 12.1713 35.9396 12.1404 36.197 12.1684C36.3628 12.1863 36.5286 12.1968 36.6944 12.2023L36.9772 12.1938C37.1176 12.2108 37.2574 12.2352 37.3953 12.2741C37.4161 12.2801 37.439 12.2801 37.4609 12.2826C37.7248 12.3086 37.9883 12.3345 38.2522 12.36C38.3316 12.3675 38.4109 12.373 38.4903 12.3829C38.5605 12.3914 38.6322 12.3979 38.6993 12.4189C38.7471 12.4338 38.8051 12.4608 38.8275 12.4997C38.8702 12.5741 38.9114 12.6589 38.917 12.7417C38.9302 12.9304 38.921 13.1205 38.9221 13.3101C38.9221 13.348 38.9124 13.3964 38.9317 13.4219C38.9745 13.4793 38.9587 13.5372 38.9597 13.597C38.9612 13.7093 38.9643 13.8221 38.9709 13.9344C38.975 14.0008 38.9851 14.0671 38.9912 14.1335V14.383C38.9933 14.403 38.9948 14.4229 38.9953 14.4429C39.0019 14.621 38.9948 14.7997 39.009 14.9768C39.0253 15.1749 39.0665 15.3711 39.0838 15.5687C39.0945 15.6934 39.1163 15.8152 39.1387 15.9384C39.1591 16.0482 39.1581 16.162 39.1652 16.2738C39.1723 16.3861 39.1764 16.4983 39.185 16.6106C39.1876 16.6476 39.1926 16.684 39.1977 16.7209C39.2018 16.8781 39.213 17.0353 39.2369 17.192C39.2664 17.3886 39.2933 17.5892 39.2445 17.7873C39.2069 17.94 39.2262 18.0922 39.274 18.2344C39.3233 18.3816 39.3391 18.5294 39.3422 18.6806C39.3427 18.704 39.3422 18.728 39.3422 18.7514C39.335 18.7524 39.3279 18.7529 39.3208 18.7539C39.3239 18.8008 39.3269 18.8477 39.3305 18.8946C39.333 18.9311 39.3381 18.9675 39.3432 19.0034C39.3432 19.0154 39.3432 19.0279 39.3432 19.0399C39.3452 19.0409 39.3467 19.0413 39.3488 19.0423C39.3574 19.1002 39.3656 19.1586 39.3671 19.217C39.3717 19.3972 39.4179 19.5688 39.4678 19.739C39.5329 19.9595 39.6122 20.1746 39.6163 20.4102C39.6178 20.501 39.6636 20.5933 39.7012 20.6801C39.7348 20.758 39.8091 20.7939 39.892 20.8024C40.0364 20.8169 40.1814 20.8258 40.3258 20.8383C40.3522 20.8403 40.3787 20.8433 40.4041 20.8493C40.6762 20.9127 40.9509 20.9476 41.2316 20.9431C41.3735 20.9406 41.5159 20.9411 41.6578 20.9461H41.9121C41.9823 20.9486 42.053 20.9516 42.1232 20.9561C42.5072 20.982 42.8917 20.9965 43.2767 20.999C43.2823 20.999 43.2879 20.999 43.294 20.999C43.3199 20.999 43.3453 21 43.3708 21C43.4242 21 43.4776 21 43.531 20.9995C43.531 20.997 43.531 20.995 43.531 20.9925C43.6398 20.9875 43.7487 20.978 43.857 20.9631H44.1113C44.1596 20.9566 44.2079 20.9491 44.2562 20.9396C44.2613 20.9386 44.2659 20.9381 44.271 20.9371C44.2903 20.9546 44.3091 20.9726 44.3274 20.991C44.4587 20.977 44.5904 20.9656 44.7221 20.9561C44.9469 20.9391 45.1722 20.9351 45.397 20.9172C45.6305 20.8987 45.8634 20.8737 46.0958 20.8448C46.2306 20.8278 46.3644 20.7989 46.4981 20.7729C46.5541 20.762 46.609 20.7345 46.6645 20.734C46.7341 20.733 46.7819 20.7086 46.8221 20.6567C46.8516 20.6187 46.8903 20.5873 46.9172 20.5479C46.9437 20.509 46.9772 20.4651 46.9793 20.4221C46.991 20.1796 47.0052 19.9366 46.9981 19.6941L46.994 19.6911Z" fill="white"/>
</svg>
